<?xml version="1.0" encoding="UTF-8"?>
<svg xmlns="http://www.w3.org/2000/svg" xmlns:xlink="http://www.w3.org/1999/xlink" width="451.9pt" height="585.5pt" viewBox="0 0 451.9 585.5" version="1.1">
<defs>
<clipPath id="clip1">
  <path d="M 0 0 L 451.898438 0 L 451.898438 585.5 L 0 585.5 Z M 0 0 "/>
</clipPath>
</defs>
<g id="surface1">
<path style=" stroke:none;fill-rule:evenodd;fill:rgb(0.784302%,57.617188%,24.31488%);fill-opacity:1;" d="M 298.804688 221.027344 L 314.648438 221.785156 L 326.71875 221.785156 L 326.71875 218.011719 L 298.804688 218.011719 Z M 298.804688 221.027344 "/>
<path style=" stroke:none;fill-rule:evenodd;fill:rgb(0.784302%,57.617188%,24.31488%);fill-opacity:1;" d="M 68.699219 186.324219 C 70.886719 186.324219 114.246094 171.238281 118.132813 169.367188 C 133.808594 161.8125 147.4375 155.683594 162.25 147.847656 C 167.855469 156.21875 177.339844 167.457031 177.339844 181.042969 C 177.339844 188.605469 98.640625 224.046875 84.542969 224.046875 L 70.984375 228.648438 C 71.066406 223.839844 76.867188 209.457031 76.160156 205.328125 C 75.597656 202.054688 66.800781 190.699219 66.433594 186.324219 Z M 270.890625 171.988281 C 270.890625 160.882813 281.503906 151.605469 288.242188 147.09375 C 302.035156 156.328125 365.355469 184.703125 384.8125 186.324219 L 371.511719 201.742188 L 379.820313 227.730469 C 369.945313 227.605469 327.027344 211.089844 318.167969 206.945313 C 308.484375 202.421875 299.242188 198.472656 290.667969 192.949219 C 282.101563 187.433594 270.890625 185.109375 270.890625 171.988281 Z M 278.4375 145.582031 L 276.171875 147.847656 L 274.664063 148.601563 L 273.15625 150.109375 L 272.398438 150.863281 L 271.644531 151.617188 L 270.890625 152.375 L 268.628906 154.636719 L 267.875 156.144531 L 267.117188 156.902344 L 264.8125 162.164063 C 263.335938 161.777344 249.089844 154.003906 245.257813 152.355469 C 238.9375 149.640625 228.726563 148.601563 219.589844 148.601563 C 204.308594 148.601563 182.453125 163.691406 181.867188 163.691406 C 181.699219 163.691406 164.515625 140.535156 164.515625 135.777344 L 164.515625 131.25 C 164.515625 118.957031 211.734375 114.652344 228.640625 114.652344 L 233.921875 114.652344 C 246.503906 114.652344 257.351563 116.789063 267.28125 119.015625 C 277.929688 121.40625 285.980469 124.503906 285.980469 137.285156 L 285.980469 138.792969 C 285.980469 141.113281 281.925781 143.753906 280.699219 145.582031 Z M 301.070313 205.183594 L 328.984375 218.011719 L 356.761719 227.535156 L 390.09375 236.871094 C 390.011719 233.203125 385.996094 223.433594 384.964844 220.121094 C 384.339844 218.109375 379.53125 203.949219 379.53125 203.675781 C 379.53125 201.210938 393.910156 188.792969 395.375 183.304688 C 385.796875 183.304688 349.765625 169.519531 341.0625 165.945313 C 322.078125 158.15625 309.09375 151.601563 292.015625 142.566406 C 294.695313 136.984375 291.664063 126.078125 288.839844 123.105469 C 283.964844 117.972656 280.679688 117.0625 272.847656 114.957031 C 258.894531 111.210938 246.972656 109.371094 229.398438 109.371094 L 219.589844 109.371094 C 207.113281 109.371094 193.414063 111.746094 182.78125 114.058594 C 175.320313 115.683594 156.96875 122.808594 156.96875 130.496094 L 156.96875 133.511719 C 156.96875 138 158.386719 139.191406 158.476563 143.320313 C 155.832031 143.9375 139.660156 153.339844 135.09375 155.398438 C 127.117188 158.988281 118.734375 163.082031 110.292969 166.054688 C 98.339844 170.261719 69.429688 182.242188 56.628906 183.304688 C 57.761719 188.179688 68.699219 204.714844 68.699219 205.941406 C 68.699219 213.316406 61.910156 227.644531 61.910156 233.855469 L 61.910156 236.117188 C 69.882813 235.941406 87.457031 229.605469 95.410156 227.367188 C 102.25 225.445313 122.796875 216.5 127.546875 216.5 C 127.996094 218.183594 127.722656 218.765625 129.808594 218.765625 L 156.214844 218.765625 L 156.214844 214.992188 L 130.5625 214.992188 C 133.394531 212.53125 153.675781 203.917969 159.246094 200.671875 C 166.378906 196.507813 182.824219 190.773438 185.808594 182.710938 L 183.375 171.988281 C 188.144531 164.867188 208.859375 153.882813 221.097656 153.882813 L 224.117188 153.882813 C 236.683594 153.882813 258.867188 163.035156 263.347656 169.726563 C 263.347656 185.734375 268.179688 185.34375 277.121094 192.164063 C 282.972656 196.628906 294.0625 201.824219 301.070313 205.183594 Z M 301.070313 205.183594 "/>
<path style=" stroke:none;fill-rule:evenodd;fill:rgb(0.784302%,57.617188%,24.31488%);fill-opacity:1;" d="M 129.027344 228.382813 L 129.066406 231.691406 L 157.121094 228.535156 L 156.152344 224.382813 Z M 129.027344 228.382813 "/>
<path style=" stroke:none;fill-rule:evenodd;fill:rgb(0.784302%,57.617188%,24.31488%);fill-opacity:1;" d="M 298.050781 230.835938 L 325.964844 235.363281 L 325.964844 231.589844 L 323.714844 231.519531 L 298.050781 227.820313 Z M 298.050781 230.835938 "/>
<path style=" stroke:none;fill-rule:evenodd;fill:rgb(0.784302%,57.617188%,24.31488%);fill-opacity:1;" d="M 235.433594 242.152344 L 237.695313 245.171875 C 241.832031 242.402344 245.992188 237 245.992188 230.082031 L 241.46875 230.082031 C 241.335938 236.035156 237.851563 238.542969 235.433594 242.152344 Z M 235.433594 242.152344 "/>
<path style=" stroke:none;fill-rule:evenodd;fill:rgb(0.784302%,57.617188%,24.31488%);fill-opacity:1;" d="M 130.5625 242.90625 C 130.5625 248.078125 152.855469 238.507813 158.632813 238.34375 L 157.722656 234.609375 C 154.34375 234.890625 130.5625 241.332031 130.5625 242.90625 Z M 130.5625 242.90625 "/>
<path style=" stroke:none;fill-rule:evenodd;fill:rgb(0.784302%,57.617188%,24.31488%);fill-opacity:1;" d="M 295.632813 240.605469 C 301.472656 241.117188 317.488281 248.1875 322.195313 248.1875 C 323.738281 248.1875 323.582031 246.632813 323.652344 245.332031 L 296.570313 236.878906 Z M 295.632813 240.605469 "/>
<path style=" stroke:none;fill-rule:evenodd;fill:rgb(0.784302%,57.617188%,24.31488%);fill-opacity:1;" d="M 252.03125 246.679688 L 257.3125 240.644531 L 253.367188 244.246094 L 252.660156 243.789063 L 256.21875 234.742188 L 252.03125 234.609375 L 245.503906 246.839844 L 249.011719 250.453125 L 252.03125 247.433594 L 249.605469 249.535156 L 248.886719 249.070313 L 252.113281 245.230469 L 252.910156 245.800781 Z M 252.03125 246.679688 "/>
<path style=" stroke:none;fill-rule:evenodd;fill:rgb(0.784302%,57.617188%,24.31488%);fill-opacity:1;" d="M 224 247.304688 L 214.941406 232.851563 L 215.816406 232.347656 L 212.042969 232.347656 C 212.042969 240.335938 216.304688 246.488281 221.097656 249.699219 Z M 224 247.304688 "/>
<path style=" stroke:none;fill-rule:evenodd;fill:rgb(0.784302%,57.617188%,24.31488%);fill-opacity:1;" d="M 133.582031 254.980469 L 135.214844 258.292969 L 160.742188 247.433594 C 160.59375 240.742188 153.355469 246.382813 148.417969 248.691406 C 143.367188 251.050781 138.359375 252.6875 133.582031 254.980469 Z M 133.582031 254.980469 "/>
<path style=" stroke:none;fill-rule:evenodd;fill:rgb(0.784302%,57.617188%,24.31488%);fill-opacity:1;" d="M 350.109375 250.453125 C 347.988281 250.453125 343.292969 245.171875 342.5625 245.171875 C 339.679688 245.171875 342.289063 244.941406 340.03125 246.285156 L 350.289063 253.652344 L 359.160156 244.417969 C 359.148438 244.40625 357.753906 243.660156 357.652344 243.660156 C 356.507813 243.660156 351.253906 250.453125 350.109375 250.453125 Z M 350.109375 250.453125 "/>
<path style=" stroke:none;fill-rule:evenodd;fill:rgb(0.784302%,57.617188%,24.31488%);fill-opacity:1;" d="M 92.839844 245.171875 C 92.839844 246.074219 100.5625 252.714844 101.894531 252.714844 L 102.648438 252.714844 C 104.179688 252.714844 110.847656 247.203125 111.703125 245.925781 C 111.6875 245.914063 110.296875 245.171875 110.191406 245.171875 C 109.3125 245.171875 103.601563 249.546875 101.894531 250.453125 C 100.4375 249.476563 94.96875 243.660156 94.351563 243.660156 C 93.679688 243.660156 92.839844 244.5 92.839844 245.171875 Z M 92.839844 245.171875 "/>
<path style=" stroke:none;fill-rule:evenodd;fill:rgb(0.784302%,57.617188%,24.31488%);fill-opacity:1;" d="M 292.769531 249.699219 L 319.082031 260.984375 L 319.929688 257.996094 C 315.269531 256.910156 297.53125 246.679688 295.035156 246.679688 C 293.679688 246.679688 293.082031 248.398438 292.769531 249.699219 Z M 292.769531 249.699219 "/>
<path style=" stroke:none;fill-rule:evenodd;fill:rgb(0%,0.784302%,0%);fill-opacity:1;" d="M 197.710938 261.015625 L 250.519531 261.015625 L 250.519531 254.980469 L 197.710938 254.980469 Z M 197.710938 261.015625 "/>
<path style=" stroke:none;fill-rule:evenodd;fill:rgb(0.784302%,57.617188%,24.31488%);fill-opacity:1;" d="M 352.371094 265.542969 C 349.195313 265.542969 343.785156 258.75 342.5625 258.75 C 339.679688 258.75 342.289063 258.519531 340.300781 259.503906 C 341.425781 261.1875 350.203125 268.558594 352.371094 268.558594 C 352.554688 268.558594 363.53125 259.234375 363.46875 257.910156 C 363.207031 252.460938 354.078125 265.542969 352.371094 265.542969 Z M 352.371094 265.542969 "/>
<path style=" stroke:none;fill-rule:evenodd;fill:rgb(0.784302%,57.617188%,24.31488%);fill-opacity:1;" d="M 99.011719 268.425781 L 112.140625 260.140625 L 111.703125 259.503906 C 108.757813 258.144531 103.058594 263.75 100.367188 265.5625 L 89.617188 256.585938 L 88.589844 257.707031 Z M 99.011719 268.425781 "/>
<path style=" stroke:none;fill-rule:evenodd;fill:rgb(0.784302%,57.617188%,24.31488%);fill-opacity:1;" d="M 288.996094 257.242188 C 288.996094 258.867188 311.628906 273.085938 313.140625 273.085938 C 313.8125 273.085938 314.648438 272.246094 314.648438 271.578125 C 314.648438 269.3125 293.609375 256.621094 290.507813 254.980469 C 290.085938 255.585938 288.996094 256.839844 288.996094 257.242188 Z M 288.996094 257.242188 "/>
<path style=" stroke:none;fill-rule:evenodd;fill:rgb(0.784302%,57.617188%,24.31488%);fill-opacity:1;" d="M 138.863281 267.804688 C 138.863281 269.039063 139.3125 270.066406 140.371094 270.066406 C 142 270.066406 164.515625 256.371094 164.515625 255.734375 C 164.515625 254.5 164.0625 253.46875 163.003906 253.46875 C 161.195313 253.46875 138.863281 266.707031 138.863281 267.804688 Z M 138.863281 267.804688 "/>
<path style=" stroke:none;fill-rule:evenodd;fill:rgb(0.784302%,57.617188%,24.31488%);fill-opacity:1;" d="M 144.898438 280.628906 C 144.914063 280.640625 146.304688 281.382813 146.40625 281.382813 C 148.414063 281.382813 167.757813 265.945313 169.148438 263.941406 L 167.53125 261.769531 C 163.753906 263.769531 145.828125 277.152344 144.898438 280.628906 Z M 144.898438 280.628906 "/>
<path style=" stroke:none;fill-rule:evenodd;fill:rgb(0.784302%,57.617188%,24.31488%);fill-opacity:1;" d="M 86.050781 267.804688 C 87.234375 269.574219 97.859375 279.875 99.628906 279.875 L 100.386719 279.875 C 102.738281 279.875 111.898438 272.027344 113.210938 270.066406 C 109.578125 268.386719 102.203125 277.613281 100.386719 277.613281 C 96.753906 277.613281 88.628906 264.871094 86.050781 267.804688 Z M 86.050781 267.804688 "/>
<path style=" stroke:none;fill-rule:evenodd;fill:rgb(0.784302%,57.617188%,24.31488%);fill-opacity:1;" d="M 151.507813 290.257813 L 154.128906 292.878906 L 175.242188 272.164063 L 172.238281 269.492188 Z M 151.507813 290.257813 "/>
<path style=" stroke:none;fill-rule:evenodd;fill:rgb(0.784302%,57.617188%,24.31488%);fill-opacity:1;" d="M 352.371094 277.613281 C 349.203125 277.613281 342.582031 268.316406 338.4375 270.542969 L 352.449219 280.714844 L 365.953125 267.804688 C 361.453125 265.722656 355.210938 277.613281 352.371094 277.613281 Z M 352.371094 277.613281 "/>
<path style=" stroke:none;fill-rule:evenodd;fill:rgb(0.784302%,57.617188%,24.31488%);fill-opacity:1;" d="M 284.472656 265.542969 C 284.472656 267.835938 303.488281 282.484375 306.441406 284.511719 L 308.855469 282.609375 L 285.980469 263.277344 C 285.558594 263.886719 284.472656 265.140625 284.472656 265.542969 Z M 284.472656 265.542969 "/>
<path style=" stroke:none;fill-rule:evenodd;fill:rgb(0%,0.784302%,0%);fill-opacity:1;" d="M 209.78125 281.382813 L 239.203125 281.382813 C 246.625 281.382813 250.519531 273.605469 250.519531 265.542969 L 197.710938 265.542969 C 197.890625 273.613281 201.589844 281.382813 209.78125 281.382813 Z M 209.78125 281.382813 "/>
<path style=" stroke:none;fill-rule:evenodd;fill:rgb(0.784302%,57.617188%,24.31488%);fill-opacity:1;" d="M 352.371094 288.929688 C 349.640625 287.097656 341.890625 278.136719 339.351563 281.636719 L 353.125 291.945313 C 354.65625 290.921875 366.523438 279.75 366.484375 279.035156 C 366.285156 274.996094 355.039063 287.144531 352.371094 288.929688 Z M 352.371094 288.929688 "/>
<path style=" stroke:none;fill-rule:evenodd;fill:rgb(0.784302%,57.617188%,24.31488%);fill-opacity:1;" d="M 278.308594 273.722656 L 298.96875 295.125 L 301.097656 292.671875 L 280.828125 270.9375 Z M 278.308594 273.722656 "/>
<path style=" stroke:none;fill-rule:evenodd;fill:rgb(0.784302%,57.617188%,24.31488%);fill-opacity:1;" d="M 101.140625 291.191406 C 103.9375 287.015625 113.582031 283.941406 111.703125 279.875 C 109.503906 281.347656 100.878906 288.175781 98.875 288.175781 C 96.527344 288.175781 90.390625 278.726563 86.050781 278.367188 C 87.570313 284.054688 96.875 290.289063 101.140625 291.191406 Z M 101.140625 291.191406 "/>
<path style=" stroke:none;fill-rule:evenodd;fill:rgb(0.784302%,57.617188%,24.31488%);fill-opacity:1;" d="M 159.390625 300.542969 L 162.503906 301.960938 L 180.996094 278.496094 L 178.167969 276.164063 Z M 159.390625 300.542969 "/>
<path style=" stroke:none;fill-rule:evenodd;fill:rgb(0%,0.784302%,0%);fill-opacity:1;" d="M 209.027344 288.175781 L 209.027344 289.683594 C 209.027344 291.421875 209.550781 291.945313 211.289063 291.945313 L 237.695313 291.945313 C 239.433594 291.945313 239.957031 291.421875 239.957031 289.683594 L 239.957031 288.175781 C 239.957031 286.4375 239.433594 285.910156 237.695313 285.910156 L 211.289063 285.910156 C 209.550781 285.910156 209.027344 286.4375 209.027344 288.175781 Z M 209.027344 288.175781 "/>
<path style=" stroke:none;fill-rule:evenodd;fill:rgb(0.784302%,57.617188%,24.31488%);fill-opacity:1;" d="M 272.238281 280.46875 C 274.0625 283.109375 289.40625 304.019531 290.507813 304.019531 C 293.390625 304.019531 290.78125 304.25 293.222656 302.929688 L 274.5 278.207031 Z M 272.238281 280.46875 "/>
<path style=" stroke:none;fill-rule:evenodd;fill:rgb(0.784302%,57.617188%,24.31488%);fill-opacity:1;" d="M 169.039063 307.789063 C 169.039063 309.023438 169.492188 310.054688 170.550781 310.054688 C 173.203125 310.054688 186.070313 287.863281 187.914063 284.375 L 184.128906 282.894531 C 183.085938 286.800781 169.039063 306.871094 169.039063 307.789063 Z M 169.039063 307.789063 "/>
<path style=" stroke:none;fill-rule:evenodd;fill:rgb(0.784302%,57.617188%,24.31488%);fill-opacity:1;" d="M 352.371094 301.753906 L 340.410156 292.792969 L 338.867188 294.855469 L 353.210938 304.863281 L 366.707031 291.945313 C 366.691406 291.933594 365.300781 291.191406 365.199219 291.191406 C 363.683594 291.191406 354.640625 300.234375 352.371094 301.753906 Z M 352.371094 301.753906 "/>
<path style=" stroke:none;fill-rule:evenodd;fill:rgb(0.784302%,57.617188%,24.31488%);fill-opacity:1;" d="M 85.296875 291.945313 C 86.421875 293.628906 97.152344 304.019531 98.875 304.019531 L 99.628906 304.019531 C 101.171875 304.019531 112.273438 295.609375 113.058594 294.363281 L 111.691406 292.6875 L 99.628906 301.753906 C 98.046875 300.691406 87.648438 291.191406 87.558594 291.191406 C 86.679688 291.191406 85.476563 291.730469 85.296875 291.945313 Z M 85.296875 291.945313 "/>
<path style=" stroke:none;fill-rule:evenodd;fill:rgb(0.784302%,57.617188%,24.31488%);fill-opacity:1;" d="M 250.519531 294.964844 C 250.519531 304.074219 258.078125 315.484375 258.820313 324.386719 C 265.699219 324.234375 260.167969 315.878906 258.535156 310.335938 C 257.253906 305.972656 253.855469 297.265625 253.539063 293.457031 C 252.074219 293.578125 250.519531 293.421875 250.519531 294.964844 Z M 250.519531 294.964844 "/>
<path style=" stroke:none;fill-rule:evenodd;fill:rgb(0.784302%,57.617188%,24.31488%);fill-opacity:1;" d="M 265.382813 286.375 L 279.984375 312.472656 L 283.9375 311.433594 L 268.367188 284.066406 Z M 265.382813 286.375 "/>
<path style=" stroke:none;fill-rule:evenodd;fill:rgb(0.784302%,57.617188%,24.31488%);fill-opacity:1;" d="M 178.5 316.683594 L 181.992188 317.65625 L 194.664063 289.023438 L 191.730469 288.199219 Z M 178.5 316.683594 "/>
<path style=" stroke:none;fill-rule:evenodd;fill:rgb(0.784302%,57.617188%,24.31488%);fill-opacity:1;" d="M 352.488281 314.703125 L 336.527344 303.265625 C 336.515625 303.277344 335.773438 304.671875 335.773438 304.773438 C 335.773438 306.949219 349.984375 316.753906 352.625 318.617188 L 369.574219 301.90625 L 368.152344 300.179688 Z M 352.488281 314.703125 "/>
<path style=" stroke:none;fill-rule:evenodd;fill:rgb(0.784302%,57.617188%,24.31488%);fill-opacity:1;" d="M 189.226563 322.816406 L 193.183594 322.878906 C 194.144531 318.757813 196.878906 309.902344 198.453125 306.269531 C 199.695313 303.40625 200.035156 301.707031 201.1875 298.441406 C 202.632813 294.328125 205.148438 292.832031 199.433594 292.773438 Z M 189.226563 322.816406 "/>
<path style=" stroke:none;fill-rule:evenodd;fill:rgb(0.784302%,57.617188%,24.31488%);fill-opacity:1;" d="M 258.066406 291.191406 C 258.066406 292.21875 269.523438 319.105469 270.890625 319.105469 C 272.125 319.105469 273.15625 318.65625 273.15625 317.597656 C 273.15625 315.832031 261.375 289.683594 260.328125 289.683594 C 259.09375 289.683594 258.066406 290.136719 258.066406 291.191406 Z M 258.066406 291.191406 "/>
<path style=" stroke:none;fill-rule:evenodd;fill:rgb(0.784302%,57.617188%,24.31488%);fill-opacity:1;" d="M 82.167969 302.417969 C 83.222656 303.921875 98.191406 317.597656 98.875 317.597656 C 102.003906 317.597656 115.480469 307.015625 116.832031 304.921875 L 115.304688 303.027344 L 99.515625 314.703125 L 83.898438 300.335938 Z M 82.167969 302.417969 "/>
<path style=" stroke:none;fill-rule:evenodd;fill:rgb(0.784302%,57.617188%,24.31488%);fill-opacity:1;" d="M 82.371094 315.445313 C 83.855469 317.6875 88.386719 322.242188 90.878906 324.085938 C 96.519531 328.265625 93.988281 327.746094 101.140625 331.179688 C 102.460938 330.292969 116.230469 319.472656 116.230469 319.105469 C 116.230469 316.222656 116.460938 318.832031 115.265625 316.550781 L 99.46875 327.582031 L 84.453125 313.71875 Z M 82.371094 315.445313 "/>
<path style=" stroke:none;fill-rule:evenodd;fill:rgb(0.784302%,57.617188%,24.31488%);fill-opacity:1;" d="M 352.371094 327.40625 C 351.464844 327.40625 339.199219 318.125 337.191406 316.734375 L 334.792969 318.648438 L 352.496094 332.074219 L 369.886719 315.925781 L 367.460938 313.824219 C 365.496094 315.140625 352.910156 327.40625 352.371094 327.40625 Z M 352.371094 327.40625 "/>
<path style=" stroke:none;fill-rule:evenodd;fill:rgb(0.784302%,57.617188%,24.31488%);fill-opacity:1;" d="M 80.660156 328.824219 L 97.367188 343.753906 L 101.648438 343.679688 L 117.144531 331.769531 L 114.679688 329.613281 L 99.472656 340.429688 L 82.386719 326.742188 Z M 80.660156 328.824219 "/>
<path style=" stroke:none;fill-rule:evenodd;fill:rgb(0.784302%,57.617188%,24.31488%);fill-opacity:1;" d="M 352.324219 340.929688 L 336.527344 329.667969 C 336.515625 329.683594 335.773438 331.078125 335.773438 331.179688 C 335.773438 333.449219 351.40625 344.757813 353.125 344.757813 C 354.019531 344.757813 370.109375 330.59375 371.34375 328.824219 L 369.535156 326.425781 Z M 352.324219 340.929688 "/>
<path style=" stroke:none;fill-rule:evenodd;fill:rgb(0.784302%,57.617188%,24.31488%);fill-opacity:1;" d="M 80.015625 339.476563 L 98.121094 354.996094 L 100.992188 355.125 L 116.894531 342.605469 L 114.523438 340.722656 L 99.628906 351.546875 C 97.769531 350.300781 83.585938 337.96875 83.035156 337.96875 C 81.808594 337.96875 80.632813 338.875 80.015625 339.476563 Z M 80.015625 339.476563 "/>
<path style=" stroke:none;fill-rule:evenodd;fill:rgb(0.784302%,57.617188%,24.31488%);fill-opacity:1;" d="M 352.371094 351.546875 L 337.191406 340.875 L 334.804688 342.78125 L 352.371094 356.074219 C 355.910156 353.707031 370.277344 342.304688 371.234375 338.722656 C 371.21875 338.710938 369.824219 337.96875 369.722656 337.96875 C 368.484375 337.96875 354.660156 350.015625 352.371094 351.546875 Z M 352.371094 351.546875 "/>
<path style=" stroke:none;fill-rule:evenodd;fill:rgb(0.784302%,57.617188%,24.31488%);fill-opacity:1;" d="M 352.433594 362.183594 C 349.605469 360.644531 335.773438 348.835938 335.773438 353.058594 C 335.773438 355.503906 349.8125 364.921875 352.589844 366.902344 L 371.34375 350.703125 L 369.570313 348.339844 Z M 352.433594 362.183594 "/>
<path style=" stroke:none;fill-rule:evenodd;fill:rgb(0.784302%,57.617188%,24.31488%);fill-opacity:1;" d="M 80.660156 350.703125 L 97.367188 365.632813 L 101.660156 365.574219 L 117.320313 354.304688 L 114.71875 351.542969 L 99.378906 362.417969 L 82.386719 348.621094 Z M 80.660156 350.703125 "/>
<path style=" stroke:none;fill-rule:evenodd;fill:rgb(0%,34.910583%,9.812927%);fill-opacity:1;" d="M 234.675781 379.464844 C 235.609375 380.855469 236.875 382.480469 239.203125 382.480469 C 241.804688 382.480469 242.125 381.921875 244.484375 381.726563 C 245.175781 381.265625 246.75 380.5 246.75 379.464844 C 246.75 376.671875 242.890625 374.9375 239.957031 374.9375 C 237.164063 374.9375 236.550781 375.671875 235.433594 377.199219 C 237.125 376.804688 237.167969 376.445313 239.203125 376.445313 L 241.46875 376.445313 C 243.503906 376.445313 243.546875 376.804688 245.394531 377.238281 L 244.484375 380.972656 L 238.449219 380.972656 C 235.125 380.972656 237.585938 379.332031 234.675781 377.199219 Z M 234.675781 379.464844 "/>
<path style=" stroke:none;fill-rule:evenodd;fill:rgb(0.784302%,57.617188%,24.31488%);fill-opacity:1;" d="M 168.300781 471.515625 C 181.035156 474.476563 198.808594 480.558594 214.308594 480.558594 L 236.183594 480.558594 C 246.242188 480.558594 251.828125 478.183594 261.078125 477.539063 C 268.035156 477.054688 277.046875 472 282.683594 471.667969 L 301.066406 503.191406 C 285.183594 510.816406 251.023438 517.527344 227.132813 517.527344 L 225.625 517.527344 C 211.8125 517.527344 197.050781 515.84375 185.339844 513.300781 C 178.734375 511.871094 174.097656 510.476563 167.832031 508.925781 C 161.453125 507.351563 155.6875 504.296875 150.542969 502.96875 Z M 205.707031 377.378906 C 210.507813 380.574219 215.597656 382.753906 220.839844 384.234375 C 226.21875 385.753906 231.761719 386.546875 237.335938 386.949219 C 240.199219 385.898438 243.628906 384.9375 244.488281 381.726563 C 245.175781 381.265625 246.75 380.5 246.75 379.460938 C 246.75 376.667969 242.886719 374.9375 239.960938 374.9375 C 237.164063 374.9375 236.550781 375.671875 235.433594 377.199219 C 237.125 376.804688 237.167969 376.445313 239.203125 376.445313 L 241.46875 376.445313 C 243.503906 376.445313 243.550781 376.804688 245.394531 377.238281 L 244.488281 380.972656 L 238.453125 380.972656 C 235.125 380.972656 237.585938 379.335938 234.675781 377.199219 L 234.675781 379.460938 L 233.8125 377.996094 C 220.90625 377.953125 213.644531 373.257813 206.007813 368.144531 C 205.699219 371.851563 204.5 370.910156 204.5 374.183594 L 204.5 374.9375 C 204.5 376.5 204.871094 376.492188 205.707031 377.378906 Z M 235.242188 387.847656 C 230.285156 387.402344 225.359375 386.613281 220.554688 385.257813 C 215.097656 383.714844 209.972656 381.425781 205.464844 378.492188 L 206.222656 386.984375 L 208.21875 386.113281 C 210.363281 389.378906 219.242188 396.0625 224.121094 396.0625 L 238.453125 396.0625 C 240.605469 396.0625 239.828125 395.820313 240.710938 394.554688 C 237.316406 394.554688 233.167969 394.007813 233.167969 390.777344 C 233.167969 389.371094 234.007813 388.511719 235.242188 387.847656 Z M 203.746094 359.09375 C 203.746094 357.527344 205.949219 355.320313 206.765625 355.320313 C 207.660156 355.320313 217.292969 360.507813 220.503906 361.195313 C 226.359375 362.449219 230.652344 363.617188 237.695313 363.617188 C 236.054688 365.859375 232.414063 365.527344 232.414063 368.902344 C 232.414063 369.710938 234.621094 371.921875 236.183594 371.921875 L 239.203125 371.921875 C 241.941406 371.921875 241.851563 371.019531 244.488281 370.410156 L 246.539063 375.035156 L 246.121094 375.8125 L 244.640625 374.03125 C 233.097656 374.183594 228.628906 375.03125 219.886719 371.617188 C 216.972656 370.480469 212.773438 368.9375 210.714844 367.210938 C 207.546875 364.550781 207.5625 361.953125 203.746094 362.867188 Z M 82.277344 367.394531 L 101.183594 381.023438 L 116.984375 368.902344 C 118.207031 371.453125 119.691406 378.449219 121.136719 382.101563 C 122.902344 386.546875 124.476563 390.054688 126.273438 394.3125 C 129.175781 401.160156 134.960938 411.441406 139.425781 416.625 C 144.851563 422.929688 148.3125 430.101563 154.515625 436.238281 C 156.511719 438.214844 172.058594 453.238281 172.058594 454.152344 C 172.058594 454.824219 155.046875 483.851563 153.199219 487.347656 C 147.453125 484.3125 133.390625 470.121094 128.113281 464.90625 C 122.5625 459.417969 111.257813 445.082031 107.539063 437.953125 C 103.394531 430.027344 94.03125 414.453125 92.132813 405.820313 C 90.871094 400.078125 87.929688 394.695313 86.492188 387.320313 C 85.234375 380.855469 82.277344 373.785156 82.277344 367.394531 Z M 299.558594 486.597656 L 279.945313 454.152344 C 281.714844 451.511719 293.617188 439.308594 296.726563 436.226563 C 302.34375 430.652344 308.1875 423.5 312.6875 416.730469 C 321.523438 403.445313 330.9375 386.425781 335.019531 368.902344 C 338.75 369.898438 348.753906 380.21875 350.863281 380.21875 C 352.933594 380.21875 365.75 368.453125 369.722656 367.394531 C 369.539063 375.859375 362.980469 397.050781 360.390625 404.835938 C 356.394531 416.867188 350.671875 426.980469 344.851563 436.824219 C 334.476563 454.355469 316.113281 475.511719 299.558594 486.597656 Z M 199.09375 333.566406 C 199.078125 333.300781 203.269531 330.726563 203.886719 330.5625 C 206.433594 329.902344 208.347656 329.671875 211.289063 329.671875 L 240.710938 329.671875 C 242.40625 329.671875 242.367188 330.269531 243.730469 331.179688 C 260.355469 331.179688 282.613281 349.527344 288.75 360.097656 C 296.15625 372.867188 295.832031 369.28125 299.371094 386.441406 C 301.902344 398.71875 301.851563 406.703125 307.859375 415.675781 C 304.257813 421.058594 296.367188 431.363281 291.832031 435.859375 C 288.894531 438.761719 274.664063 451.558594 274.664063 454.910156 C 274.664063 455.140625 281.550781 465.285156 282.203125 467.734375 C 278.484375 468.046875 276.261719 469.996094 270.890625 469.996094 C 260.4375 469.996094 271.257813 406.621094 264.101563 406.621094 L 260.328125 406.621094 C 254.257813 406.621094 248.292969 409.640625 242.21875 409.640625 L 234.675781 409.640625 C 223.921875 409.640625 206.851563 400.136719 206.007813 390.027344 C 211.167969 393.480469 217.757813 399.832031 226.378906 399.832031 L 233.167969 399.832031 C 233.246094 403.378906 234.242188 404.359375 237.695313 404.359375 L 239.960938 404.359375 C 241.523438 404.359375 243.730469 402.152344 243.730469 401.34375 C 243.730469 399.53125 242.507813 399.125 241.46875 397.574219 C 244.328125 397.332031 245.992188 394.160156 245.992188 392.289063 L 245.992188 391.535156 C 245.992188 389.238281 245.652344 388.777344 245.515625 387.128906 L 248.257813 379.460938 C 248.90625 379.894531 260.328125 391.519531 260.328125 386.253906 C 260.328125 385.304688 251.816406 377.488281 249.753906 373.441406 C 246.691406 367.414063 246.179688 363.160156 241.382813 358.425781 C 234.730469 351.859375 241.589844 350.558594 228.457031 347.964844 C 221.445313 346.570313 214.695313 345.5 208.273438 344.003906 C 209.027344 343.351563 212.042969 341.199219 212.042969 340.234375 C 212.042969 335.933594 208.078125 332.6875 203.746094 332.6875 C 201.285156 332.6875 201.261719 333.078125 199.847656 334.320313 Z M 196.199219 333.441406 C 196.199219 339.988281 197.5 342.09375 201.015625 344.894531 L 203.746094 353.0625 C 202.210938 354.089844 199.972656 355.839844 199.972656 358.339844 C 199.972656 362.785156 202.238281 364.507813 202.238281 368.144531 C 202.238281 371.445313 200.726563 370.882813 200.726563 374.183594 L 200.726563 375.691406 C 200.726563 376.816406 201.949219 382.886719 202.230469 387.011719 C 202.464844 390.453125 203.65625 394.378906 204.980469 397.089844 C 207.992188 403.238281 218.082031 408.203125 218.082031 410.398438 L 218.082031 419.449219 C 218.082031 422.320313 215.101563 421.421875 212.171875 423.347656 C 209.925781 424.828125 208.386719 426.296875 206.5625 428.300781 C 203.816406 431.316406 200.726563 437.28125 200.726563 442.835938 L 200.726563 443.589844 C 200.726563 455.625 209.5625 466.980469 221.097656 466.980469 L 228.644531 466.980469 C 237.007813 466.980469 247.5 455.773438 247.5 446.613281 L 247.5 441.324219 C 247.5 433.761719 242.023438 426.667969 236.941406 423.976563 C 234.996094 422.949219 230.152344 421.800781 230.152344 419.449219 L 230.152344 412.660156 L 242.21875 412.660156 L 262.59375 410.398438 L 262.59375 446.613281 C 262.59375 452.546875 263.480469 456.15625 264.027344 461.011719 C 264.644531 466.480469 267.828125 471.492188 265.558594 472.136719 C 259.871094 473.761719 243.742188 476.03125 236.941406 476.03125 L 216.570313 476.03125 C 201.070313 476.03125 183.617188 470.78125 170.550781 467.734375 C 170.957031 462.847656 177.339844 456.394531 177.339844 453.398438 C 177.339844 453.261719 160.996094 436.359375 159.027344 433.992188 C 152.808594 426.507813 147.894531 421.363281 142.335938 412.960938 C 136.4375 404.054688 133.59375 398.96875 128.800781 388.769531 C 126.644531 384.179688 120.910156 362.976563 118.253906 361.0625 L 101.105469 374.980469 L 79.992188 359.804688 L 76.996094 361.355469 C 76.996094 381.253906 94.003906 426.726563 102.503906 438.453125 C 109.390625 447.945313 116.566406 459.46875 124.707031 467.550781 C 127.277344 470.101563 150.9375 492.25 150.9375 492.632813 C 150.9375 493.824219 144.917969 502.558594 144.140625 505.457031 C 149.175781 506.628906 157.476563 510.3125 162.410156 512.085938 C 168.660156 514.328125 175.183594 515.679688 182.34375 517.054688 C 197.460938 519.960938 209.898438 522.054688 227.886719 522.054688 C 254.207031 522.054688 290.222656 513.921875 308.347656 505.15625 L 300.316406 492.632813 C 301.6875 490.585938 322.679688 472.105469 326.910156 467.925781 C 336.386719 458.554688 341.394531 449.785156 348.894531 438.609375 C 358.335938 424.539063 375.007813 383.789063 375.007813 361.355469 C 375.007813 359.621094 374.480469 359.09375 372.742188 359.09375 C 372.101563 359.09375 353.34375 373.273438 350.863281 374.9375 C 347.394531 373.097656 336.105469 362.109375 334.261719 362.109375 C 330.320313 362.109375 329.960938 370.777344 328.671875 374.617188 C 327.136719 379.164063 325.515625 383.984375 323.816406 387.875 C 321.210938 393.816406 311.714844 408.777344 310.875 411.90625 C 304.664063 410.246094 303.398438 383.722656 301.183594 376.328125 C 297.601563 364.371094 290.941406 356.894531 283.148438 349.097656 C 275.445313 341.390625 266.867188 335.574219 256.832031 330.148438 C 251.59375 327.3125 252.332031 331.382813 250.808594 324.855469 C 250.023438 321.484375 249.65625 318.757813 248.851563 315.496094 C 247.425781 309.75 246.648438 302.519531 245.238281 296.472656 L 241.164063 296.539063 L 247.5 327.40625 C 239.59375 327.40625 239.757813 327.386719 238.742188 321.078125 C 237.996094 316.445313 237.695313 311.953125 237.695313 307.039063 L 237.695313 302.507813 C 237.695313 293.398438 244.488281 298.128906 244.488281 290.441406 L 244.488281 289.6875 C 244.488281 287.082031 243.925781 286.761719 243.730469 284.402344 C 256.382813 283.351563 255.046875 264.496094 255.046875 250.449219 C 258.261719 245.652344 267.871094 234.171875 267.871094 227.0625 L 267.871094 214.238281 C 267.871094 206.253906 263.671875 191.835938 258.800781 188.546875 L 256.085938 190.128906 L 255.078125 198.488281 L 254.296875 198.394531 C 254.296875 191.175781 246.574219 173.496094 242.21875 173.496094 L 241.46875 173.496094 C 238.054688 173.496094 239.347656 180.949219 238.453125 184.816406 L 236.941406 184.816406 C 236.125 175.046875 227.949219 166.945313 217.324219 166.707031 C 218.476563 168.878906 221.097656 173.519531 221.097656 176.515625 C 221.097656 181.003906 219.421875 190.308594 218.082031 193.113281 C 213.019531 191.761719 212.042969 180.796875 212.042969 174.253906 L 209.023438 174.253906 C 206.597656 174.253906 204.65625 183.011719 203.746094 184.816406 C 202.125 188.019531 199.972656 192.835938 199.972656 197.644531 C 195.808594 194.855469 195.433594 188.589844 192.429688 188.589844 L 191.671875 188.589844 C 187.890625 188.589844 183.378906 210.40625 183.378906 217.253906 L 183.378906 225.554688 C 183.378906 233.921875 189.445313 246.691406 193.9375 249.699219 C 192.015625 253.703125 193 267.148438 194.082031 271.429688 C 196.160156 279.613281 197.605469 281.507813 204.5 285.160156 C 204.5 293.976563 203.96875 291.171875 207.277344 296.421875 L 202.238281 319.105469 C 202.113281 324.597656 197.609375 327.65625 204.414063 327.808594 L 210.175781 300.332031 L 211.289063 300.246094 C 211.492188 309.289063 214.082031 313.183594 212.835938 323.667969 C 212.316406 328.066406 208.085938 326.566406 203.625 328.042969 C 199.894531 329.269531 198.386719 330.929688 196.199219 333.441406 Z M 239.960938 289.6875 C 239.960938 291.425781 239.433594 291.945313 237.695313 291.945313 L 211.289063 291.945313 C 209.554688 291.945313 209.023438 291.425781 209.023438 289.6875 L 209.023438 288.175781 C 209.023438 286.441406 209.554688 285.90625 211.289063 285.90625 L 237.695313 285.90625 C 239.433594 285.90625 239.960938 286.441406 239.960938 288.175781 Z M 250.519531 265.542969 C 250.519531 273.605469 246.625 281.382813 239.203125 281.382813 L 209.78125 281.382813 C 201.589844 281.382813 197.886719 273.613281 197.707031 265.542969 Z M 197.707031 254.980469 L 250.519531 254.980469 L 250.519531 261.015625 L 197.707031 261.015625 Z M 257.3125 240.644531 L 252.027344 246.679688 L 252.027344 247.433594 L 249.011719 250.449219 L 216.570313 250.449219 C 212.878906 247.976563 208.40625 241.425781 208.273438 235.363281 L 203.746094 235.363281 L 203.746094 238.378906 C 203.746094 241.46875 208.300781 248.238281 209.78125 250.449219 L 200.726563 250.449219 C 196.484375 247.613281 187.902344 235.441406 187.902344 228.570313 L 187.902344 211.976563 C 187.902344 207.046875 190.476563 198.113281 193.179688 196.132813 L 198.441406 206.3125 L 197.707031 206.695313 L 200.726563 206.695313 C 204.636719 206.695313 203.527344 189.597656 209.023438 185.570313 L 215.9375 205.140625 C 221.675781 200.890625 225.625 185.679688 225.625 175.007813 C 237.257813 181.164063 231.246094 200.660156 236.183594 200.660156 L 239.203125 200.660156 L 243.355469 181.890625 L 244.488281 181.800781 C 244.734375 184.8125 248.175781 188.386719 249.351563 193.53125 C 250.398438 198.128906 249.769531 203.992188 249.769531 208.957031 L 254.246094 210.597656 L 259.207031 199.304688 L 260.328125 199.148438 C 261.117188 202.546875 264.101563 212.738281 264.101563 214.992188 L 264.101563 220.273438 C 264.101563 227.71875 259.996094 235.574219 257.3125 240.644531 Z M 257.3125 240.644531 "/>
<g clip-path="url(#clip1)" clip-rule="nonzero">
<path style=" stroke:none;fill-rule:evenodd;fill:rgb(0.784302%,57.617188%,24.31488%);fill-opacity:1;" d="M 306.9375 77.65625 L 307.105469 85.226563 C 307.105469 102.390625 311.609375 116.121094 319.316406 125.828125 C 324.132813 131.890625 325.679688 134.492188 332.433594 139.113281 C 335.027344 140.890625 348.925781 146.339844 352.371094 146.339844 L 361.425781 146.339844 C 369.980469 146.339844 376.121094 143.921875 383.144531 142.40625 C 387.125 141.546875 400.285156 134.265625 401.410156 134.265625 C 401.855469 134.265625 415.910156 144.574219 417.707031 145.882813 C 419.953125 147.519531 433.851563 156.183594 433.851563 157.65625 C 433.851563 157.949219 425.785156 176.136719 424.6875 178.667969 C 421.371094 186.3125 419.492188 193.148438 418.765625 203.679688 C 417.394531 223.617188 419.535156 242.722656 419.519531 262.523438 C 419.484375 302.316406 422.535156 340.726563 422.535156 381.726563 L 422.535156 383.234375 C 422.535156 406.917969 410.164063 440.867188 400.964844 455.972656 C 389.65625 474.539063 372.015625 491.546875 353.71875 503.03125 C 332.296875 516.472656 314.398438 523.179688 288.492188 532.109375 C 266.253906 539.773438 237.980469 547.734375 226.378906 565.058594 C 222.011719 562.132813 219.035156 557.113281 214.160156 553.886719 C 209.019531 550.480469 204.863281 547.757813 198.777344 545.128906 C 193.542969 542.871094 187.246094 540.703125 182.210938 538.308594 C 176.460938 535.570313 170.277344 534.554688 164.207031 532.167969 C 152.28125 527.480469 141.136719 524.171875 129.367188 519.480469 C 118.394531 515.105469 106.886719 509.085938 97.667969 502.890625 C 81.453125 491.992188 59.234375 472.691406 50.839844 454.660156 C 48.710938 450.089844 45.386719 444.582031 42.78125 439.332031 C 39.832031 433.386719 38.726563 428.136719 36.492188 421.476563 C 34.472656 415.445313 32.859375 408.335938 31.902344 401.925781 C 31.296875 397.882813 28.710938 383.675781 28.710938 380.972656 L 28.878906 375.695313 L 33.992188 205.941406 C 34.5625 189.078125 18.152344 160.980469 18.152344 157.65625 C 18.152344 156.636719 32.230469 147.300781 34.308594 145.898438 C 36.15625 144.648438 50.117188 134.265625 50.59375 134.265625 C 52.898438 134.265625 73.945313 146.339844 86.804688 146.339844 L 97.367188 146.339844 C 110.722656 146.339844 125.011719 135.988281 131.535156 128.449219 C 138.242188 120.691406 144.898438 103.460938 144.898438 89 L 144.898438 70.894531 C 146.425781 70.484375 181.335938 46.652344 185.011719 43.859375 C 188.085938 41.523438 225.613281 16.574219 225.625 16.574219 C 227.613281 16.574219 261.203125 40.0625 266.773438 43.324219 C 273.679688 47.359375 303.386719 69.851563 307.949219 70.90625 Z M 321.890625 65.585938 C 320.15625 62.570313 226.375 -0.0234375 225.625 -0.0234375 C 225.125 -0.0234375 138.53125 59.019531 129.808594 64.859375 L 131.621094 82.933594 L 131.316406 92.019531 C 131.316406 113.085938 115.3125 132.757813 92.839844 132.757813 L 86.804688 132.757813 C 72.894531 132.757813 53 118.421875 50.59375 118.421875 C 49.347656 118.421875 1.527344 151.664063 0.0429688 153.882813 C 9.636719 168.210938 20.414063 190.453125 20.414063 214.238281 L 20.414063 223.292969 L 15.839844 367.390625 L 15.886719 378.707031 C 15.886719 440.605469 51.382813 489.917969 89.8125 513.765625 C 111.488281 527.214844 134.867188 537.207031 162.105469 545.589844 C 176.484375 550.011719 187.074219 555.710938 199.402344 560.347656 C 211.347656 564.839844 218.414063 580.09375 226.378906 585.429688 C 230.503906 579.265625 246.164063 563.195313 253.226563 560.21875 C 264.695313 555.382813 277.367188 548.503906 290.351563 545.285156 C 314.628906 539.273438 344.054688 525.925781 362.632813 513.453125 C 384.101563 499.042969 400.988281 483.546875 413.738281 460.445313 C 425.125 439.800781 436.117188 410.257813 436.117188 378.707031 L 436.117188 375.691406 L 431.664063 229.324219 L 431.589844 212.730469 C 431.589844 191.039063 443.1875 166.980469 451.960938 153.882813 C 450.496094 151.695313 402.503906 118.421875 401.410156 118.421875 C 399.917969 118.421875 379.296875 132.757813 359.917969 132.757813 L 359.160156 132.757813 L 348.609375 131.914063 C 345.273438 129.777344 340.808594 128.363281 336.816406 125.679688 C 332.941406 123.074219 331.425781 119.839844 328.785156 116.359375 C 324.761719 111.066406 320.683594 98.160156 320.683594 89 L 320.414063 84.453125 Z M 321.890625 65.585938 "/>
</g>
<path style=" stroke:none;fill-rule:evenodd;fill:rgb(0%,0.784302%,0%);fill-opacity:1;" d="M 204.214844 376.992188 C 214.621094 384.359375 226.410156 386.78125 238.265625 387.539063 "/>
<path style=" stroke:none;fill-rule:evenodd;fill:rgb(0.784302%,57.617188%,24.31488%);fill-opacity:1;" d="M 78.433594 208.398438 C 79.40625 208.027344 80.390625 207.636719 81.375 207.257813 C 81.539063 208.3125 81.789063 208.972656 82.101563 209.246094 C 82.632813 209.707031 83.503906 209.738281 84.726563 209.339844 C 85.746094 209.003906 86.453125 208.546875 86.855469 207.976563 C 87.261719 207.410156 87.429688 206.839844 87.359375 206.253906 C 87.292969 205.738281 87.0625 205.375 86.65625 205.144531 C 86.363281 204.980469 85.597656 204.8125 84.363281 204.628906 C 83.132813 204.445313 82.214844 204.238281 81.636719 204.035156 C 81.050781 203.828125 80.574219 203.488281 80.191406 202.980469 C 79.808594 202.46875 79.574219 201.808594 79.480469 200.996094 C 79.3125 199.5625 79.636719 198.222656 80.445313 196.953125 C 81.246094 195.695313 82.523438 194.765625 84.269531 194.152344 C 86.039063 193.527344 87.445313 193.496094 88.53125 194.097656 C 89.601563 194.695313 90.28125 195.769531 90.554688 197.3125 C 89.570313 197.722656 88.585938 198.117188 87.613281 198.519531 C 87.449219 197.722656 87.109375 197.175781 86.609375 196.902344 C 86.109375 196.625 85.433594 196.628906 84.5625 196.929688 C 83.714844 197.226563 83.113281 197.625 82.792969 198.09375 C 82.472656 198.566406 82.332031 199.050781 82.394531 199.570313 C 82.449219 200.058594 82.667969 200.402344 83.039063 200.609375 C 83.414063 200.820313 84.207031 201.023438 85.425781 201.195313 C 87.253906 201.449219 88.4375 201.761719 88.96875 202.121094 C 89.765625 202.664063 90.257813 203.546875 90.398438 204.78125 C 90.574219 206.300781 90.203125 207.785156 89.269531 209.226563 C 88.347656 210.648438 86.929688 211.675781 85.042969 212.292969 C 83.753906 212.714844 82.59375 212.839844 81.585938 212.652344 C 80.574219 212.460938 79.816406 211.988281 79.324219 211.238281 C 78.835938 210.492188 78.535156 209.550781 78.433594 208.398438 Z M 92.683594 209.453125 C 92.855469 206.382813 93.054688 203.308594 93.230469 200.246094 C 93.40625 197.167969 93.605469 194.089844 93.785156 191.003906 C 97.484375 189.628906 101.1875 188.230469 104.875 186.8125 C 104.8125 187.859375 104.769531 188.90625 104.714844 189.949219 C 102.035156 190.976563 99.359375 191.976563 96.691406 192.957031 C 96.597656 194.363281 96.519531 195.769531 96.445313 197.175781 C 99.023438 196.234375 101.628906 195.285156 104.203125 194.316406 C 104.140625 195.367188 104.09375 196.414063 104.03125 197.449219 C 101.445313 198.40625 98.859375 199.339844 96.253906 200.265625 C 96.125 201.960938 96 203.648438 95.871094 205.335938 C 98.792969 204.316406 101.707031 203.277344 104.621094 202.226563 C 104.558594 203.277344 104.496094 204.316406 104.441406 205.363281 C 100.523438 206.746094 96.597656 208.113281 92.683594 209.453125 Z M 109.867188 203.410156 C 108.828125 203.785156 107.800781 204.15625 106.773438 204.53125 C 106.945313 201.382813 107.113281 198.246094 107.28125 195.117188 C 107.449219 191.972656 107.617188 188.832031 107.800781 185.679688 C 110.003906 184.8125 112.210938 183.933594 114.421875 183.050781 C 115.558594 182.597656 116.460938 182.375 117.125 182.398438 C 117.796875 182.417969 118.375 182.730469 118.855469 183.324219 C 119.328125 183.90625 119.632813 184.746094 119.765625 185.816406 C 119.953125 187.339844 119.722656 188.761719 119.082031 190.046875 C 118.441406 191.339844 117.363281 192.402344 115.839844 193.238281 C 116.296875 193.503906 116.730469 193.925781 117.152344 194.476563 C 118.023438 195.617188 119.019531 197.3125 120.175781 199.5625 C 119.074219 199.980469 117.960938 200.390625 116.871094 200.804688 C 116.476563 199.894531 115.757813 198.519531 114.730469 196.671875 C 114.175781 195.679688 113.636719 195.078125 113.101563 194.867188 C 112.792969 194.742188 112.265625 194.824219 111.542969 195.101563 C 111.117188 195.261719 110.695313 195.410156 110.277344 195.578125 C 110.132813 198.195313 110.003906 200.800781 109.867188 203.410156 Z M 110.433594 192.730469 C 110.976563 192.523438 111.519531 192.316406 112.0625 192.105469 C 113.722656 191.464844 114.792969 190.917969 115.304688 190.472656 C 115.820313 190.023438 116.195313 189.492188 116.441406 188.871094 C 116.6875 188.246094 116.769531 187.664063 116.707031 187.097656 C 116.632813 186.449219 116.351563 186.050781 115.867188 185.898438 C 115.578125 185.808594 114.984375 185.953125 114.085938 186.308594 C 112.949219 186.757813 111.816406 187.199219 110.695313 187.632813 C 110.605469 189.335938 110.515625 191.027344 110.433594 192.730469 Z M 129.292969 196.007813 C 128.199219 196.4375 127.105469 196.863281 126.003906 197.296875 C 125.191406 194.449219 124.378906 191.605469 123.570313 188.773438 C 122.765625 185.945313 121.949219 183.125 121.152344 180.308594 C 122.167969 179.882813 123.191406 179.472656 124.199219 179.039063 C 125.375 183.332031 126.566406 187.648438 127.75 191.964844 C 128.488281 189.257813 129.253906 186.542969 129.992188 183.824219 C 130.726563 181.105469 131.484375 178.378906 132.230469 175.628906 C 133.242188 175.203125 134.246094 174.761719 135.253906 174.320313 C 134.261719 177.960938 133.28125 181.597656 132.289063 185.214844 C 131.296875 188.820313 130.292969 192.417969 129.292969 196.007813 Z M 135.59375 193.46875 C 135.738281 190.199219 135.878906 186.917969 136.019531 183.644531 C 136.160156 180.371094 136.304688 177.085938 136.457031 173.796875 C 137.46875 173.363281 138.480469 172.914063 139.488281 172.460938 C 139.34375 175.753906 139.214844 179.054688 139.082031 182.351563 C 138.945313 185.632813 138.796875 188.929688 138.660156 192.214844 C 137.632813 192.636719 136.621094 193.066406 135.59375 193.46875 Z M 151.410156 179.722656 C 152.457031 179.464844 153.496094 179.199219 154.550781 178.941406 C 154.214844 181.324219 153.515625 183.335938 152.457031 184.972656 C 151.394531 186.609375 150.058594 187.773438 148.449219 188.460938 C 146.636719 189.230469 145.132813 189.144531 143.941406 188.210938 C 142.75 187.273438 141.996094 185.503906 141.675781 182.929688 C 141.414063 180.816406 141.523438 178.75 141.992188 176.707031 C 142.460938 174.664063 143.238281 172.894531 144.324219 171.433594 C 145.421875 169.957031 146.6875 168.898438 148.113281 168.25 C 149.707031 167.523438 151.0625 167.46875 152.171875 168.089844 C 153.300781 168.722656 154.070313 169.945313 154.46875 171.738281 C 153.523438 172.308594 152.566406 172.871094 151.609375 173.421875 C 151.308594 172.40625 150.90625 171.757813 150.382813 171.480469 C 149.859375 171.203125 149.214844 171.222656 148.449219 171.578125 C 147.621094 171.960938 146.863281 172.632813 146.21875 173.597656 C 145.570313 174.570313 145.113281 175.832031 144.84375 177.398438 C 144.578125 178.945313 144.519531 180.40625 144.6875 181.757813 C 144.875 183.25 145.296875 184.277344 145.972656 184.851563 C 146.644531 185.417969 147.40625 185.519531 148.25 185.15625 C 149.035156 184.8125 149.714844 184.164063 150.296875 183.230469 C 150.878906 182.304688 151.253906 181.128906 151.410156 179.722656 Z M 156.453125 184.632813 C 156.574219 181.257813 156.691406 177.882813 156.808594 174.503906 C 156.925781 171.121094 157.054688 167.75 157.183594 164.359375 C 160.816406 162.636719 164.449219 160.886719 168.074219 159.109375 C 168.039063 160.261719 168 161.417969 167.964844 162.566406 C 165.34375 163.835938 162.71875 165.089844 160.097656 166.328125 C 160.042969 167.871094 159.976563 169.414063 159.933594 170.953125 C 162.464844 169.777344 165.003906 168.585938 167.546875 167.367188 C 167.5 168.515625 167.472656 169.667969 167.4375 170.808594 C 164.894531 172.003906 162.355469 173.195313 159.8125 174.359375 C 159.714844 176.21875 159.621094 178.066406 159.523438 179.921875 C 162.390625 178.636719 165.25 177.320313 168.121094 175.992188 C 168.074219 177.140625 168.027344 178.285156 168 179.441406 C 164.160156 181.195313 160.316406 182.929688 156.453125 184.632813 Z M 156.453125 184.632813 "/>
<path style=" stroke:none;fill-rule:evenodd;fill:rgb(0.784302%,57.617188%,24.31488%);fill-opacity:1;" d="M 177.027344 128.046875 C 179.332031 127.644531 181.644531 127.246094 183.960938 126.859375 C 185.335938 126.632813 186.367188 126.53125 187.035156 126.546875 C 187.710938 126.5625 188.3125 126.726563 188.851563 127.046875 C 189.378906 127.363281 189.824219 127.828125 190.179688 128.441406 C 190.53125 129.054688 190.707031 129.78125 190.707031 130.609375 C 190.707031 131.507813 190.492188 132.371094 190.058594 133.1875 C 189.625 134.003906 189.019531 134.652344 188.273438 135.140625 C 189.332031 135.324219 190.148438 135.785156 190.707031 136.515625 C 191.273438 137.265625 191.566406 138.1875 191.566406 139.300781 C 191.566406 140.171875 191.386719 141.050781 191.015625 141.929688 C 190.648438 142.804688 190.144531 143.535156 189.507813 144.117188 C 188.878906 144.691406 188.09375 145.113281 187.164063 145.355469 C 186.578125 145.507813 185.167969 145.761719 182.933594 146.09375 C 180.957031 146.390625 178.992188 146.671875 177.027344 146.960938 C 177.027344 143.808594 177.027344 140.65625 177.027344 137.5 C 177.027344 134.351563 177.027344 131.199219 177.027344 128.046875 Z M 180.539063 130.601563 C 180.539063 132.066406 180.539063 133.53125 180.539063 134.992188 C 181.296875 134.871094 182.054688 134.75 182.824219 134.628906 C 184.191406 134.410156 185.039063 134.257813 185.378906 134.160156 C 185.964844 133.996094 186.445313 133.6875 186.785156 133.257813 C 187.132813 132.824219 187.304688 132.300781 187.304688 131.679688 C 187.304688 131.089844 187.160156 130.621094 186.863281 130.304688 C 186.5625 129.980469 186.117188 129.828125 185.539063 129.847656 C 185.1875 129.859375 184.191406 130 182.542969 130.269531 C 181.875 130.378906 181.207031 130.488281 180.539063 130.601563 Z M 180.539063 138.160156 C 180.539063 139.003906 180.539063 139.851563 180.539063 140.699219 C 180.539063 141.542969 180.539063 142.390625 180.539063 143.238281 C 181.617188 143.078125 182.695313 142.914063 183.773438 142.753906 C 185.035156 142.570313 185.835938 142.402344 186.175781 142.28125 C 186.691406 142.097656 187.128906 141.789063 187.453125 141.332031 C 187.777344 140.886719 187.941406 140.3125 187.941406 139.632813 C 187.941406 139.0625 187.816406 138.589844 187.5625 138.226563 C 187.308594 137.863281 186.941406 137.625 186.464844 137.515625 C 185.996094 137.40625 184.957031 137.46875 183.363281 137.71875 C 182.414063 137.863281 181.476563 138.007813 180.539063 138.160156 Z M 194.519531 144.484375 C 194.519531 141.273438 194.519531 138.054688 194.519531 134.839844 C 194.519531 131.625 194.519531 128.410156 194.519531 125.195313 C 198.800781 124.597656 203.09375 124.054688 207.382813 123.589844 C 207.382813 124.6875 207.382813 125.785156 207.382813 126.886719 C 204.257813 127.214844 201.136719 127.578125 198.023438 127.976563 C 198.023438 129.410156 198.023438 130.839844 198.023438 132.269531 C 200.925781 131.902344 203.832031 131.570313 206.734375 131.261719 C 206.734375 132.355469 206.734375 133.449219 206.734375 134.539063 C 203.832031 134.839844 200.925781 135.164063 198.023438 135.519531 C 198.023438 136.402344 198.023438 137.28125 198.023438 138.160156 C 198.023438 139.035156 198.023438 139.914063 198.023438 140.789063 C 201.246094 140.414063 204.480469 140.0625 207.710938 139.753906 C 207.710938 140.847656 207.710938 141.945313 207.710938 143.039063 C 203.3125 143.457031 198.910156 143.945313 194.519531 144.484375 Z M 210.714844 142.785156 C 210.714844 139.539063 210.714844 136.285156 210.714844 133.03125 C 210.714844 129.78125 210.714844 126.53125 210.714844 123.277344 C 214.679688 122.980469 218.640625 122.765625 222.613281 122.644531 C 222.613281 123.753906 222.613281 124.855469 222.613281 125.957031 C 219.808594 126.035156 217.011719 126.15625 214.21875 126.316406 C 214.21875 127.859375 214.21875 129.402344 214.21875 130.9375 C 216.632813 130.800781 219.046875 130.6875 221.464844 130.613281 C 221.464844 131.71875 221.464844 132.824219 221.464844 133.925781 C 219.046875 134 216.632813 134.105469 214.21875 134.246094 C 214.21875 135.628906 214.21875 137.015625 214.21875 138.398438 C 214.21875 139.78125 214.21875 141.164063 214.21875 142.546875 C 213.050781 142.617188 211.882813 142.699219 210.714844 142.785156 Z M 224.785156 132.535156 C 224.785156 130.535156 225.039063 128.855469 225.574219 127.507813 C 225.964844 126.519531 226.511719 125.625 227.191406 124.84375 C 227.875 124.058594 228.621094 123.492188 229.4375 123.128906 C 230.515625 122.644531 231.765625 122.417969 233.179688 122.492188 C 235.734375 122.621094 237.78125 123.648438 239.316406 125.5625 C 240.074219 126.507813 240.65625 127.625 241.035156 128.898438 C 241.414063 130.175781 241.613281 131.613281 241.613281 133.203125 C 241.613281 134.78125 241.414063 136.175781 241.035156 137.375 C 240.65625 138.574219 240.085938 139.597656 239.328125 140.433594 C 237.8125 142.09375 235.773438 142.84375 233.21875 142.726563 C 230.644531 142.609375 228.585938 141.683594 227.0625 139.886719 C 226.304688 138.992188 225.734375 137.925781 225.355469 136.699219 C 224.980469 135.476563 224.785156 134.089844 224.785156 132.535156 Z M 228.390625 132.429688 C 228.390625 134.644531 228.847656 136.339844 229.757813 137.511719 C 230.660156 138.679688 231.8125 139.292969 233.210938 139.355469 C 234.605469 139.417969 235.757813 138.921875 236.652344 137.835938 C 237.09375 137.296875 237.429688 136.605469 237.648438 135.769531 C 237.867188 134.9375 237.988281 133.953125 237.988281 132.820313 C 237.988281 130.578125 237.550781 128.875 236.679688 127.714844 C 235.816406 126.5625 234.65625 125.9375 233.210938 125.867188 C 231.765625 125.800781 230.601563 126.324219 229.714844 127.414063 C 228.835938 128.503906 228.390625 130.175781 228.390625 132.429688 Z M 244.355469 143.199219 C 244.355469 139.945313 244.355469 136.6875 244.355469 133.429688 C 244.355469 130.171875 244.355469 126.917969 244.355469 123.660156 C 246.8125 123.921875 249.269531 124.203125 251.730469 124.519531 C 253.585938 124.761719 254.9375 125.136719 255.773438 125.601563 C 256.609375 126.070313 257.292969 126.792969 257.796875 127.757813 C 258.300781 128.722656 258.546875 129.777344 258.546875 130.925781 C 258.546875 132.375 258.164063 133.523438 257.398438 134.363281 C 256.640625 135.199219 255.492188 135.644531 253.96875 135.683594 C 254.726563 136.28125 255.351563 136.914063 255.84375 137.566406 C 256.335938 138.230469 256.996094 139.371094 257.839844 140.988281 C 258.542969 142.347656 259.253906 143.703125 259.964844 145.0625 C 258.566406 144.867188 257.167969 144.6875 255.773438 144.5 C 254.925781 142.980469 254.078125 141.460938 253.238281 139.941406 C 252.34375 138.316406 251.71875 137.289063 251.390625 136.855469 C 251.0625 136.421875 250.714844 136.105469 250.335938 135.910156 C 249.964844 135.722656 249.375 135.582031 248.566406 135.492188 C 248.328125 135.464844 248.097656 135.4375 247.867188 135.410156 C 247.867188 136.769531 247.867188 138.128906 247.867188 139.484375 C 247.867188 140.84375 247.867188 142.203125 247.867188 143.558594 C 246.691406 143.429688 245.523438 143.3125 244.355469 143.199219 Z M 247.867188 132.292969 C 248.726563 132.394531 249.585938 132.488281 250.453125 132.59375 C 252.128906 132.800781 253.1875 132.863281 253.605469 132.757813 C 254.023438 132.65625 254.34375 132.425781 254.585938 132.070313 C 254.824219 131.71875 254.945313 131.242188 254.945313 130.660156 C 254.945313 130.007813 254.785156 129.460938 254.476563 129.011719 C 254.167969 128.566406 253.730469 128.246094 253.148438 128.066406 C 252.871094 127.984375 252.019531 127.851563 250.59375 127.671875 C 249.6875 127.558594 248.777344 127.453125 247.867188 127.347656 C 247.867188 128.996094 247.867188 130.648438 247.867188 132.292969 Z M 261.851563 145.316406 C 261.851563 142.101563 261.851563 138.882813 261.851563 135.664063 C 261.851563 132.445313 261.851563 129.230469 261.851563 126.011719 C 266.132813 126.730469 270.421875 127.496094 274.710938 128.289063 C 274.710938 129.351563 274.710938 130.417969 274.710938 131.484375 C 271.589844 130.929688 268.46875 130.378906 265.351563 129.847656 C 265.351563 131.269531 265.351563 132.6875 265.351563 134.105469 C 268.257813 134.582031 271.160156 135.066406 274.0625 135.558594 C 274.0625 136.621094 274.0625 137.679688 274.0625 138.742188 C 271.160156 138.269531 268.257813 137.804688 265.351563 137.34375 C 265.351563 138.214844 265.351563 139.085938 265.351563 139.960938 C 265.351563 140.828125 265.351563 141.703125 265.351563 142.574219 C 268.585938 143.058594 271.820313 143.546875 275.054688 144.039063 C 275.054688 145.101563 275.054688 146.160156 275.054688 147.21875 C 270.652344 146.582031 266.25 145.941406 261.851563 145.316406 Z M 261.851563 145.316406 "/>
<path style=" stroke:none;fill-rule:evenodd;fill:rgb(0.784302%,57.617188%,24.31488%);fill-opacity:1;" d="M 296.257813 179.449219 C 297.417969 179.808594 298.585938 180.167969 299.761719 180.527344 C 299.476563 181.863281 299.539063 182.957031 299.933594 183.804688 C 300.328125 184.644531 301.050781 185.296875 302.109375 185.746094 C 303.21875 186.214844 304.152344 186.3125 304.925781 186.035156 C 305.683594 185.757813 306.207031 185.28125 306.472656 184.589844 C 306.644531 184.148438 306.660156 183.722656 306.542969 183.304688 C 306.421875 182.894531 306.117188 182.441406 305.617188 181.957031 C 305.277344 181.628906 304.457031 180.957031 303.164063 179.941406 C 301.503906 178.632813 300.449219 177.441406 299.992188 176.382813 C 299.332031 174.875 299.296875 173.375 299.875 171.875 C 300.242188 170.90625 300.828125 170.109375 301.644531 169.484375 C 302.460938 168.867188 303.417969 168.539063 304.515625 168.519531 C 305.621094 168.5 306.828125 168.785156 308.140625 169.371094 C 310.296875 170.335938 311.703125 171.574219 312.390625 173.089844 C 313.078125 174.601563 313.117188 176.222656 312.507813 177.960938 C 311.328125 177.511719 310.15625 177.0625 308.984375 176.609375 C 309.210938 175.578125 309.160156 174.742188 308.839844 174.109375 C 308.515625 173.472656 307.859375 172.933594 306.894531 172.507813 C 305.890625 172.0625 305.011719 171.9375 304.273438 172.144531 C 303.800781 172.277344 303.460938 172.582031 303.269531 173.070313 C 303.097656 173.515625 303.128906 173.972656 303.347656 174.441406 C 303.625 175.035156 304.527344 175.925781 306.03125 177.089844 C 307.558594 178.269531 308.625 179.265625 309.25 180.074219 C 309.871094 180.886719 310.257813 181.792969 310.402344 182.792969 C 310.546875 183.792969 310.390625 184.882813 309.9375 186.054688 C 309.519531 187.121094 308.855469 188.011719 307.949219 188.710938 C 307.039063 189.410156 306 189.777344 304.824219 189.8125 C 303.65625 189.847656 302.320313 189.554688 300.839844 188.933594 C 298.671875 188.023438 297.214844 186.773438 296.480469 185.179688 C 295.742188 183.582031 295.667969 181.664063 296.257813 179.449219 Z M 310.726563 192.707031 C 311.933594 189.613281 313.144531 186.523438 314.351563 183.429688 C 315.558594 180.335938 316.773438 177.246094 317.980469 174.152344 C 322.210938 176.046875 326.445313 177.9375 330.675781 179.832031 C 330.261719 180.859375 329.855469 181.886719 329.449219 182.914063 C 326.371094 181.550781 323.292969 180.191406 320.214844 178.828125 C 319.675781 180.191406 319.144531 181.554688 318.601563 182.917969 C 321.464844 184.167969 324.328125 185.417969 327.203125 186.675781 C 326.789063 187.695313 326.386719 188.71875 325.980469 189.742188 C 323.109375 188.5 320.25 187.261719 317.382813 186.023438 C 317.054688 186.863281 316.722656 187.703125 316.390625 188.539063 C 316.0625 189.375 315.738281 190.214844 315.410156 191.054688 C 318.59375 192.402344 321.78125 193.757813 324.96875 195.113281 C 324.566406 196.140625 324.15625 197.160156 323.75 198.179688 C 319.410156 196.359375 315.070313 194.539063 310.726563 192.707031 Z M 326.773438 199.453125 C 327.96875 196.460938 329.171875 193.464844 330.371094 190.46875 C 331.570313 187.472656 332.765625 184.472656 333.964844 181.476563 C 335.117188 181.992188 336.269531 182.511719 337.421875 183.023438 C 336.429688 185.5 335.433594 187.976563 334.4375 190.449219 C 333.441406 192.921875 332.449219 195.398438 331.457031 197.875 C 334.320313 199.085938 337.179688 200.300781 340.046875 201.519531 C 339.640625 202.519531 339.234375 203.523438 338.828125 204.523438 C 334.804688 202.832031 330.789063 201.144531 326.773438 199.453125 Z M 341.316406 205.570313 C 342.527344 202.617188 343.734375 199.660156 344.945313 196.703125 C 346.152344 193.75 347.363281 190.792969 348.570313 187.835938 C 352.484375 189.589844 356.398438 191.339844 360.3125 193.089844 C 359.90625 194.074219 359.496094 195.054688 359.085938 196.035156 C 356.320313 194.8125 353.558594 193.589844 350.800781 192.367188 C 350.226563 193.761719 349.65625 195.152344 349.085938 196.542969 C 351.464844 197.582031 353.851563 198.621094 356.230469 199.660156 C 355.820313 200.648438 355.410156 201.628906 355.007813 202.617188 C 352.625 201.585938 350.238281 200.558594 347.855469 199.527344 C 347.34375 200.777344 346.828125 202.027344 346.316406 203.277344 C 345.804688 204.527344 345.289063 205.777344 344.777344 207.023438 C 343.621094 206.539063 342.46875 206.050781 341.316406 205.570313 Z M 341.316406 205.570313 "/>
<path style=" stroke:none;fill-rule:evenodd;fill:rgb(0.784302%,57.617188%,24.31488%);fill-opacity:1;" d="M 116.289063 393.140625 L 118.84375 399.617188 C 119.417969 401.078125 119.746094 402.230469 119.824219 403.089844 C 119.929688 404.238281 119.738281 405.335938 119.25 406.371094 C 118.765625 407.410156 118.039063 408.34375 117.070313 409.171875 C 116.097656 409.996094 114.792969 410.730469 113.144531 411.382813 C 111.703125 411.949219 110.386719 412.261719 109.195313 412.316406 C 107.75 412.382813 106.46875 412.164063 105.359375 411.65625 C 104.515625 411.28125 103.722656 410.636719 102.976563 409.722656 C 102.417969 409.039063 101.882813 408.042969 101.367188 406.730469 L 98.734375 400.066406 Z M 114.714844 397.855469 L 103.09375 402.441406 L 104.136719 405.085938 C 104.523438 406.074219 104.859375 406.769531 105.148438 407.164063 C 105.519531 407.679688 105.949219 408.0625 106.441406 408.308594 C 106.933594 408.550781 107.621094 408.632813 108.503906 408.566406 C 109.378906 408.492188 110.503906 408.191406 111.859375 407.65625 C 113.214844 407.121094 114.207031 406.589844 114.839844 406.066406 C 115.472656 405.539063 115.910156 404.976563 116.144531 404.390625 C 116.382813 403.796875 116.4375 403.140625 116.320313 402.421875 C 116.242188 401.882813 115.910156 400.894531 115.339844 399.445313 Z M 114.714844 397.855469 "/>
<path style=" stroke:none;fill-rule:evenodd;fill:rgb(0.784302%,57.617188%,24.31488%);fill-opacity:1;" d="M 106.957031 417.503906 L 123.421875 408.289063 L 130.25 420.496094 L 127.464844 422.054688 L 122.492188 413.171875 L 118.84375 415.214844 L 123.46875 423.480469 L 120.695313 425.03125 L 116.074219 416.765625 L 111.589844 419.273438 L 116.738281 428.472656 L 113.960938 430.023438 Z M 106.957031 417.503906 "/>
<path style=" stroke:none;fill-rule:evenodd;fill:rgb(0.784302%,57.617188%,24.31488%);fill-opacity:1;" d="M 115.679688 433.011719 L 131.585938 423.152344 L 133.59375 426.386719 L 120.390625 434.570313 L 125.378906 442.621094 L 122.675781 444.296875 Z M 115.679688 433.011719 "/>
<path style=" stroke:none;fill-rule:evenodd;fill:rgb(0.784302%,57.617188%,24.31488%);fill-opacity:1;" d="M 124.863281 446.4375 L 139.585938 434.636719 L 141.972656 437.613281 L 136.179688 442.253906 L 140.847656 448.078125 L 146.640625 443.4375 L 149.023438 446.410156 L 134.300781 458.207031 L 131.917969 455.234375 L 138.355469 450.078125 L 133.6875 444.253906 L 127.25 449.410156 Z M 124.863281 446.4375 "/>
<path style=" stroke:none;fill-rule:evenodd;fill:rgb(0.784302%,57.617188%,24.31488%);fill-opacity:1;" d="M 137.367188 461.605469 L 150.980469 448.546875 L 153.617188 451.296875 L 140 464.355469 Z M 137.367188 461.605469 "/>
<path style=" stroke:none;fill-rule:evenodd;fill:rgb(0.784302%,57.617188%,24.31488%);fill-opacity:1;" d="M 188.363281 503.382813 L 189.753906 487.746094 L 195.265625 487.746094 C 197.355469 487.746094 198.710938 487.824219 199.328125 487.984375 C 200.285156 488.214844 201.058594 488.726563 201.648438 489.511719 C 202.234375 490.296875 202.472656 491.3125 202.363281 492.554688 C 202.277344 493.515625 202.015625 494.324219 201.578125 494.976563 C 201.136719 495.632813 200.613281 496.144531 199.992188 496.519531 C 199.378906 496.890625 198.761719 497.136719 198.148438 497.257813 C 197.316406 497.40625 196.121094 497.484375 194.5625 497.484375 L 192.324219 497.484375 L 191.800781 503.382813 Z M 192.953125 490.394531 L 192.558594 494.828125 L 194.4375 494.828125 C 195.792969 494.828125 196.707031 494.746094 197.179688 494.582031 C 197.648438 494.417969 198.027344 494.164063 198.320313 493.816406 C 198.609375 493.464844 198.777344 493.0625 198.816406 492.597656 C 198.867188 492.03125 198.726563 491.5625 198.394531 491.191406 C 198.066406 490.820313 197.625 490.589844 197.078125 490.5 C 196.671875 490.425781 195.851563 490.394531 194.613281 490.394531 Z M 192.953125 490.394531 "/>
<path style=" stroke:none;fill-rule:evenodd;fill:rgb(0.784302%,57.617188%,24.31488%);fill-opacity:1;" d="M 204.699219 489.722656 L 207.855469 489.722656 L 207.464844 498.417969 C 207.40625 499.796875 207.40625 500.695313 207.464844 501.101563 C 207.570313 501.757813 207.867188 502.289063 208.355469 502.683594 C 208.847656 503.082031 209.535156 503.28125 210.414063 503.28125 C 211.3125 503.28125 211.996094 503.09375 212.46875 502.71875 C 212.941406 502.34375 213.234375 501.878906 213.351563 501.335938 C 213.46875 500.785156 213.554688 499.875 213.613281 498.605469 L 214.011719 489.722656 L 217.167969 489.722656 L 216.789063 498.15625 C 216.703125 500.085938 216.554688 501.445313 216.347656 502.242188 C 216.144531 503.039063 215.800781 503.707031 215.316406 504.257813 C 214.832031 504.800781 214.199219 505.242188 213.417969 505.566406 C 212.636719 505.890625 211.625 506.050781 210.386719 506.050781 C 208.894531 506.050781 207.769531 505.875 207.011719 505.519531 C 206.257813 505.164063 205.671875 504.707031 205.246094 504.140625 C 204.824219 503.578125 204.558594 502.980469 204.445313 502.363281 C 204.277344 501.441406 204.234375 500.085938 204.316406 498.289063 Z M 204.699219 489.722656 "/>
<path style=" stroke:none;fill-rule:evenodd;fill:rgb(0.784302%,57.617188%,24.31488%);fill-opacity:1;" d="M 219.566406 490.878906 L 225.816406 490.878906 C 227.054688 490.878906 227.980469 490.929688 228.585938 491.039063 C 229.195313 491.144531 229.734375 491.363281 230.21875 491.695313 C 230.699219 492.027344 231.09375 492.46875 231.414063 493.027344 C 231.734375 493.578125 231.894531 494.199219 231.894531 494.886719 C 231.894531 495.632813 231.699219 496.316406 231.304688 496.941406 C 230.910156 497.5625 230.375 498.03125 229.699219 498.339844 C 230.652344 498.621094 231.386719 499.105469 231.894531 499.78125 C 232.410156 500.464844 232.664063 501.265625 232.664063 502.183594 C 232.664063 502.90625 232.5 503.613281 232.167969 504.296875 C 231.835938 504.980469 231.386719 505.527344 230.816406 505.933594 C 230.242188 506.34375 229.535156 506.59375 228.695313 506.691406 C 228.171875 506.746094 226.902344 506.785156 224.886719 506.796875 L 219.566406 506.796875 Z M 222.726563 493.53125 L 222.726563 497.210938 L 224.792969 497.210938 C 226.023438 497.210938 226.789063 497.191406 227.085938 497.15625 C 227.625 497.09375 228.050781 496.902344 228.359375 496.585938 C 228.667969 496.273438 228.824219 495.855469 228.824219 495.34375 C 228.824219 494.847656 228.691406 494.449219 228.425781 494.140625 C 228.15625 493.832031 227.757813 493.648438 227.234375 493.585938 C 226.921875 493.546875 226.023438 493.53125 224.539063 493.53125 Z M 222.726563 499.859375 L 222.726563 504.117188 L 225.644531 504.117188 C 226.785156 504.117188 227.503906 504.085938 227.808594 504.019531 C 228.28125 503.933594 228.664063 503.71875 228.957031 503.386719 C 229.253906 503.046875 229.402344 502.59375 229.402344 502.03125 C 229.402344 501.554688 229.285156 501.148438 229.058594 500.816406 C 228.828125 500.484375 228.503906 500.238281 228.074219 500.085938 C 227.644531 499.933594 226.707031 499.859375 225.273438 499.859375 Z M 222.726563 499.859375 "/>
<path style=" stroke:none;fill-rule:evenodd;fill:rgb(0.784302%,57.617188%,24.31488%);fill-opacity:1;" d="M 235.625 506.984375 L 235.625 491.476563 L 238.78125 491.476563 L 238.78125 504.347656 L 246.632813 504.347656 L 246.632813 506.984375 Z M 235.625 506.984375 "/>
<path style=" stroke:none;fill-rule:evenodd;fill:rgb(0.784302%,57.617188%,24.31488%);fill-opacity:1;" d="M 248.890625 506.097656 L 252.046875 506.097656 L 252.046875 490.460938 L 248.890625 490.460938 Z M 248.890625 506.097656 "/>
<path style=" stroke:none;fill-rule:evenodd;fill:rgb(0.784302%,57.617188%,24.31488%);fill-opacity:1;" d="M 263.96875 498.90625 L 267.027344 499.890625 C 266.554688 501.625 265.777344 502.914063 264.683594 503.757813 C 263.597656 504.601563 262.207031 505.023438 260.53125 505.023438 C 258.457031 505.023438 256.75 504.300781 255.414063 502.859375 C 254.074219 501.414063 253.40625 499.441406 253.40625 496.941406 C 253.40625 494.292969 254.082031 492.238281 255.421875 490.773438 C 256.765625 489.308594 258.53125 488.578125 260.722656 488.578125 C 262.636719 488.578125 264.191406 489.152344 265.382813 490.300781 C 266.097656 490.980469 266.628906 491.957031 266.984375 493.230469 L 263.859375 493.992188 C 263.675781 493.164063 263.289063 492.511719 262.699219 492.035156 C 262.113281 491.558594 261.402344 491.320313 260.5625 491.320313 C 259.40625 491.320313 258.464844 491.742188 257.742188 492.589844 C 257.023438 493.433594 256.660156 494.804688 256.660156 496.703125 C 256.660156 498.710938 257.015625 500.144531 257.726563 500.996094 C 258.4375 501.851563 259.363281 502.277344 260.496094 502.277344 C 261.339844 502.277344 262.058594 502.007813 262.664063 501.464844 C 263.269531 500.921875 263.703125 500.066406 263.96875 498.90625 Z M 263.96875 498.90625 "/>
<path style=" stroke:none;fill-rule:evenodd;fill:rgb(0.784302%,57.617188%,24.31488%);fill-opacity:1;" d="M 303.449219 467.039063 L 305.175781 464.398438 C 306.117188 464.914063 306.960938 465.101563 307.710938 464.960938 C 308.453125 464.816406 309.136719 464.367188 309.75 463.601563 C 310.402344 462.792969 310.722656 462.042969 310.707031 461.359375 C 310.695313 460.671875 310.460938 460.140625 310.003906 459.773438 C 309.707031 459.539063 309.386719 459.421875 309.042969 459.433594 C 308.695313 459.433594 308.273438 459.59375 307.773438 459.902344 C 307.433594 460.109375 306.714844 460.640625 305.613281 461.476563 C 304.195313 462.558594 303.023438 463.171875 302.097656 463.320313 C 300.796875 463.535156 299.65625 463.246094 298.671875 462.457031 C 298.035156 461.945313 297.589844 461.289063 297.324219 460.484375 C 297.0625 459.683594 297.058594 458.824219 297.3125 457.914063 C 297.570313 457.007813 298.082031 456.074219 298.851563 455.117188 C 300.109375 453.554688 301.398438 452.652344 302.71875 452.414063 C 304.039063 452.175781 305.285156 452.496094 306.464844 453.375 L 304.550781 455.980469 C 303.824219 455.570313 303.175781 455.433594 302.613281 455.5625 C 302.046875 455.691406 301.484375 456.109375 300.914063 456.816406 C 300.328125 457.546875 300.011719 458.238281 299.984375 458.894531 C 299.960938 459.3125 300.109375 459.65625 300.433594 459.914063 C 300.726563 460.152344 301.082031 460.230469 301.488281 460.148438 C 302.011719 460.046875 302.910156 459.5 304.179688 458.507813 C 305.453125 457.515625 306.480469 456.851563 307.257813 456.511719 C 308.039063 456.175781 308.828125 456.054688 309.632813 456.15625 C 310.4375 456.253906 311.230469 456.621094 312.015625 457.253906 C 312.726563 457.828125 313.238281 458.5625 313.539063 459.460938 C 313.84375 460.359375 313.859375 461.292969 313.578125 462.257813 C 313.296875 463.226563 312.722656 464.253906 311.851563 465.335938 C 310.585938 466.910156 309.25 467.828125 307.84375 468.085938 C 306.4375 468.34375 304.972656 467.996094 303.449219 467.039063 Z M 303.449219 467.039063 "/>
<path style=" stroke:none;fill-rule:evenodd;fill:rgb(0.784302%,57.617188%,24.31488%);fill-opacity:1;" d="M 319.878906 447.910156 L 322.566406 446.121094 C 323.613281 447.566406 324.113281 448.976563 324.078125 450.359375 C 324.039063 451.738281 323.488281 453.085938 322.429688 454.402344 C 321.117188 456.03125 319.484375 456.925781 317.527344 457.078125 C 315.570313 457.230469 313.625 456.535156 311.695313 454.984375 C 309.652344 453.339844 308.492188 451.535156 308.207031 449.570313 C 307.925781 447.609375 308.476563 445.765625 309.859375 444.046875 C 311.066406 442.546875 312.488281 441.683594 314.132813 441.460938 C 315.105469 441.320313 316.195313 441.511719 317.402344 442.019531 L 316.015625 444.945313 C 315.265625 444.578125 314.515625 444.476563 313.777344 444.640625 C 313.039063 444.804688 312.40625 445.21875 311.875 445.875 C 311.144531 446.785156 310.875 447.785156 311.074219 448.878906 C 311.269531 449.96875 312.101563 451.101563 313.5625 452.277344 C 315.117188 453.527344 316.445313 454.136719 317.554688 454.105469 C 318.660156 454.082031 319.574219 453.617188 320.289063 452.726563 C 320.820313 452.066406 321.066406 451.332031 321.027344 450.519531 C 320.992188 449.710938 320.605469 448.839844 319.878906 447.910156 Z M 319.878906 447.910156 "/>
<path style=" stroke:none;fill-rule:evenodd;fill:rgb(0.784302%,57.617188%,24.31488%);fill-opacity:1;" d="M 327.742188 446.613281 L 315.578125 437.511719 L 317.417969 435.054688 L 322.203125 438.632813 L 325.804688 433.824219 L 321.019531 430.242188 L 322.855469 427.785156 L 335.019531 436.886719 L 333.179688 439.34375 L 327.863281 435.363281 L 324.261719 440.175781 L 329.582031 444.15625 Z M 327.742188 446.613281 "/>
<path style=" stroke:none;fill-rule:evenodd;fill:rgb(0.784302%,57.617188%,24.31488%);fill-opacity:1;" d="M 337.296875 414.449219 C 336.046875 413.445313 335.148438 412.417969 334.601563 411.359375 C 334.203125 410.578125 333.945313 409.746094 333.839844 408.867188 C 333.730469 407.984375 333.789063 407.160156 334.011719 406.394531 C 334.300781 405.367188 334.847656 404.359375 335.652344 403.359375 C 337.105469 401.554688 338.828125 400.558594 340.820313 400.375 C 342.8125 400.191406 344.808594 400.902344 346.804688 402.507813 C 348.785156 404.101563 349.898438 405.886719 350.152344 407.863281 C 350.402344 409.835938 349.804688 411.726563 348.359375 413.523438 C 346.894531 415.347656 345.167969 416.351563 343.191406 416.535156 C 341.214844 416.714844 339.25 416.019531 337.296875 414.449219 Z M 339.265625 411.835938 C 340.652344 412.949219 341.96875 413.476563 343.199219 413.410156 C 344.429688 413.34375 345.441406 412.820313 346.238281 411.832031 C 347.03125 410.84375 347.328125 409.75 347.121094 408.542969 C 346.917969 407.339844 346.109375 406.167969 344.6875 405.023438 C 343.28125 403.894531 341.988281 403.359375 340.800781 403.414063 C 339.613281 403.472656 338.609375 404.015625 337.789063 405.035156 C 336.964844 406.058594 336.65625 407.164063 336.851563 408.351563 C 337.050781 409.535156 337.851563 410.699219 339.265625 411.835938 Z M 339.265625 411.835938 "/>
<path style=" stroke:none;fill-rule:evenodd;fill:rgb(0.784302%,57.617188%,24.31488%);fill-opacity:1;" d="M 352.804688 402.15625 L 338.292969 397.558594 L 339.226563 394.605469 L 351.273438 398.421875 L 353.601563 391.078125 L 356.066406 391.859375 Z M 352.804688 402.15625 "/>
<path style=" stroke:none;fill-rule:evenodd;fill:rgb(0.784302%,57.617188%,24.31488%);fill-opacity:1;" d="M 329.476563 429.488281 C 328.226563 428.480469 327.328125 427.453125 326.78125 426.398438 C 326.382813 425.617188 326.125 424.785156 326.019531 423.902344 C 325.910156 423.023438 325.96875 422.199219 326.191406 421.433594 C 326.480469 420.40625 327.027344 419.394531 327.832031 418.398438 C 329.285156 416.589844 331.007813 415.59375 333 415.414063 C 334.992188 415.226563 336.988281 415.9375 338.984375 417.542969 C 340.964844 419.136719 342.078125 420.921875 342.332031 422.898438 C 342.582031 424.871094 341.984375 426.761719 340.539063 428.5625 C 339.074219 430.386719 337.347656 431.386719 335.371094 431.570313 C 333.394531 431.75 331.429688 431.054688 329.476563 429.488281 Z M 331.445313 426.871094 C 332.832031 427.988281 334.148438 428.511719 335.378906 428.449219 C 336.609375 428.382813 337.621094 427.855469 338.417969 426.867188 C 339.207031 425.882813 339.507813 424.785156 339.300781 423.578125 C 339.097656 422.375 338.289063 421.203125 336.867188 420.058594 C 335.460938 418.929688 334.167969 418.394531 332.976563 418.449219 C 331.792969 418.511719 330.789063 419.054688 329.96875 420.074219 C 329.144531 421.09375 328.835938 422.199219 329.03125 423.386719 C 329.230469 424.574219 330.03125 425.734375 331.445313 426.871094 Z M 331.445313 426.871094 "/>
<path style=" stroke:none;fill-rule:evenodd;fill:rgb(100%,100%,100%);fill-opacity:1;" d="M 235.433594 242.15625 C 237.851563 238.542969 241.335938 236.035156 241.46875 230.082031 L 245.992188 230.082031 C 245.992188 237 241.832031 242.402344 237.695313 245.171875 Z M 216.570313 250.449219 L 249.011719 250.449219 L 245.503906 246.839844 L 252.027344 234.609375 L 256.214844 234.742188 L 252.660156 243.785156 L 253.367188 244.242188 L 257.3125 240.644531 C 259.996094 235.574219 264.101563 227.71875 264.101563 220.273438 L 264.101563 214.992188 C 264.101563 212.738281 261.117188 202.546875 260.328125 199.148438 L 259.207031 199.304688 L 254.246094 210.597656 L 249.769531 208.957031 C 249.769531 203.992188 250.398438 198.128906 249.351563 193.53125 C 248.175781 188.386719 244.734375 184.8125 244.488281 181.800781 L 243.355469 181.890625 L 239.203125 200.660156 L 236.183594 200.660156 C 231.246094 200.660156 237.257813 181.164063 225.625 175.007813 C 225.625 185.679688 221.675781 200.890625 215.9375 205.140625 L 209.023438 185.570313 C 203.527344 189.597656 204.636719 206.695313 200.726563 206.695313 L 197.707031 206.695313 L 198.441406 206.3125 L 193.179688 196.132813 C 190.476563 198.113281 187.902344 207.046875 187.902344 211.976563 L 187.902344 228.570313 C 187.902344 235.441406 196.484375 247.613281 200.726563 250.449219 L 209.78125 250.449219 C 208.300781 248.238281 203.746094 241.46875 203.746094 238.378906 L 203.746094 235.363281 L 208.273438 235.363281 C 208.40625 241.425781 212.878906 247.976563 216.570313 250.449219 Z M 212.042969 232.34375 L 215.816406 232.34375 L 214.945313 232.851563 L 224 247.308594 L 221.097656 249.699219 C 216.308594 246.492188 212.042969 240.335938 212.042969 232.34375 Z M 212.042969 232.34375 "/>
<path style=" stroke:none;fill-rule:evenodd;fill:rgb(100%,100%,100%);fill-opacity:1;" d="M 197.707031 261.015625 L 250.519531 261.015625 L 250.519531 254.980469 L 197.707031 254.980469 Z M 197.707031 261.015625 "/>
<path style=" stroke:none;fill-rule:evenodd;fill:rgb(100%,100%,100%);fill-opacity:1;" d="M 250.519531 265.542969 L 197.707031 265.542969 C 197.886719 273.613281 201.589844 281.382813 209.78125 281.382813 L 239.203125 281.382813 C 246.625 281.382813 250.519531 273.605469 250.519531 265.542969 Z M 250.519531 265.542969 "/>
<path style=" stroke:none;fill-rule:evenodd;fill:rgb(100%,100%,100%);fill-opacity:1;" d="M 237.695313 285.90625 L 211.289063 285.90625 C 209.554688 285.90625 209.023438 286.441406 209.023438 288.175781 L 209.023438 289.6875 C 209.023438 291.425781 209.554688 291.945313 211.289063 291.945313 L 237.695313 291.945313 C 239.433594 291.945313 239.960938 291.425781 239.960938 289.6875 L 239.960938 288.175781 C 239.960938 286.441406 239.433594 285.90625 237.695313 285.90625 Z M 237.695313 285.90625 "/>
<path style=" stroke:none;fill-rule:evenodd;fill:rgb(100%,100%,100%);fill-opacity:1;" d="M 288.75 360.097656 C 282.613281 349.527344 260.355469 331.179688 243.730469 331.179688 C 242.367188 330.269531 242.40625 329.671875 240.710938 329.671875 L 211.289063 329.671875 C 208.347656 329.671875 206.433594 329.902344 203.886719 330.5625 C 203.269531 330.726563 199.078125 333.300781 199.09375 333.566406 L 199.847656 334.320313 C 201.261719 333.078125 201.285156 332.6875 203.746094 332.6875 C 208.078125 332.6875 212.042969 335.933594 212.042969 340.234375 C 212.042969 341.199219 209.027344 343.351563 208.273438 344.003906 C 214.695313 345.5 221.445313 346.570313 228.457031 347.964844 C 241.589844 350.558594 234.730469 351.859375 241.382813 358.425781 C 246.179688 363.160156 246.691406 367.414063 249.753906 373.441406 C 251.816406 377.488281 260.328125 385.304688 260.328125 386.253906 C 260.328125 391.519531 248.90625 379.894531 248.257813 379.460938 L 245.515625 387.128906 C 245.652344 388.777344 245.992188 389.238281 245.992188 391.535156 L 245.992188 392.289063 C 245.992188 394.160156 244.328125 397.332031 241.46875 397.574219 C 242.507813 399.125 243.730469 399.53125 243.730469 401.34375 C 243.730469 402.152344 241.523438 404.359375 239.960938 404.359375 L 237.695313 404.359375 C 234.242188 404.359375 233.246094 403.378906 233.167969 399.832031 L 226.378906 399.832031 C 217.757813 399.832031 211.167969 393.480469 206.007813 390.027344 C 206.851563 400.136719 223.921875 409.640625 234.675781 409.640625 L 242.21875 409.640625 C 248.292969 409.640625 254.257813 406.621094 260.328125 406.621094 L 264.101563 406.621094 C 271.257813 406.621094 260.4375 469.996094 270.890625 469.996094 C 276.261719 469.996094 278.484375 468.046875 282.203125 467.734375 C 281.550781 465.285156 274.664063 455.140625 274.664063 454.910156 C 274.664063 451.558594 288.894531 438.761719 291.832031 435.859375 C 296.367188 431.363281 304.257813 421.058594 307.859375 415.675781 C 301.851563 406.703125 301.902344 398.71875 299.371094 386.441406 C 295.832031 369.28125 296.15625 372.867188 288.75 360.097656 Z M 288.75 360.097656 "/>
<path style=" stroke:none;fill-rule:evenodd;fill:rgb(100%,100%,100%);fill-opacity:1;" d="M 235.242188 387.847656 C 230.285156 387.402344 225.359375 386.613281 220.554688 385.257813 C 215.097656 383.714844 209.972656 381.425781 205.464844 378.492188 L 206.222656 386.984375 L 208.21875 386.113281 C 210.363281 389.378906 219.242188 396.0625 224.121094 396.0625 L 238.453125 396.0625 C 240.605469 396.0625 239.828125 395.820313 240.710938 394.554688 C 237.316406 394.554688 233.167969 394.007813 233.167969 390.777344 C 233.167969 389.371094 234.007813 388.511719 235.242188 387.847656 Z M 235.242188 387.847656 "/>
<path style=" stroke:none;fill-rule:evenodd;fill:rgb(100%,100%,100%);fill-opacity:1;" d="M 220.839844 384.234375 C 226.21875 385.753906 231.761719 386.546875 237.335938 386.949219 C 240.199219 385.898438 243.628906 384.9375 244.488281 381.726563 C 242.125 381.921875 241.804688 382.480469 239.203125 382.480469 C 236.875 382.480469 235.609375 380.855469 234.675781 379.460938 L 233.8125 377.996094 C 220.90625 377.953125 213.644531 373.257813 206.007813 368.144531 C 205.699219 371.851563 204.5 370.910156 204.5 374.183594 L 204.5 374.9375 C 204.5 376.5 204.871094 376.492188 205.707031 377.378906 C 210.507813 380.574219 215.597656 382.753906 220.839844 384.234375 Z M 220.839844 384.234375 "/>
<path style=" stroke:none;fill-rule:evenodd;fill:rgb(100%,100%,100%);fill-opacity:1;" d="M 219.886719 371.617188 C 228.628906 375.03125 233.097656 374.183594 244.640625 374.03125 L 246.121094 375.8125 L 246.539063 375.035156 L 244.488281 370.410156 C 241.851563 371.019531 241.941406 371.921875 239.203125 371.921875 L 236.183594 371.921875 C 234.621094 371.921875 232.414063 369.710938 232.414063 368.902344 C 232.414063 365.527344 236.054688 365.859375 237.695313 363.617188 C 230.652344 363.617188 226.359375 362.449219 220.503906 361.195313 C 217.292969 360.507813 207.660156 355.320313 206.765625 355.320313 C 205.949219 355.320313 203.746094 357.527344 203.746094 359.09375 L 203.746094 362.867188 C 207.5625 361.953125 207.546875 364.550781 210.714844 367.210938 C 212.773438 368.9375 216.972656 370.480469 219.886719 371.617188 Z M 219.886719 371.617188 "/>
</g>
</svg>
